STARTFONT 2.3
FONT -FontForge-Monoton-Book-R-Normal--11-110-72-72-P-74-ISO10646-1
SIZE 11 72 72  4
FONTBOUNDINGBOX 21 18 -2 -5
COMMENT "Generated by fontforge, http://fontforge.sourceforge.net"
COMMENT "Copyright (c) 2011 by vernon adams. All rights reserved."
STARTPROPERTIES 41
FOUNDRY "FontForge"
FAMILY_NAME "Monoton"
WEIGHT_NAME "Book"
SLANT "R"
SETWIDTH_NAME "Normal"
ADD_STYLE_NAME ""
PIXEL_SIZE 11
POINT_SIZE 110
RESOLUTION_X 72
RESOLUTION_Y 72
SPACING "P"
AVERAGE_WIDTH 74
CHARSET_REGISTRY "ISO10646"
CHARSET_ENCODING "1"
FONTNAME_REGISTRY ""
CHARSET_COLLECTIONS "ISO8859-2 ISO8859-9 ISO8859-4 ISO10646-1"
BITS_PER_PIXEL 4
FONT_NAME "Monoton-Regular"
FACE_NAME "Monoton"
COPYRIGHT "Copyright (c) 2011 by vernon adams. All rights reserved."
FONT_VERSION "1.000"
FONT_ASCENT 9
FONT_DESCENT 2
UNDERLINE_POSITION -1
UNDERLINE_THICKNESS 1
X_HEIGHT 7
CAP_HEIGHT 8
DEFAULT_CHAR 1
RAW_ASCENT 799
RAW_DESCENT 200
NORM_SPACE 1
RELATIVE_WEIGHT 40
RELATIVE_SETWIDTH 50
SUPERSCRIPT_X 0
SUPERSCRIPT_Y 3
SUPERSCRIPT_SIZE 6
SUBSCRIPT_X 0
SUBSCRIPT_Y 0
SUBSCRIPT_SIZE 6
AVG_LOWERCASE_WIDTH 79
AVG_UPPERCASE_WIDTH 87
ENDPROPERTIES
CHARS 372
STARTCHAR glyph1.dup1
ENCODING 0
SWIDTH 108 0
DWIDTH 1 0
BBX 1 1 0 0
BITMAP
00
ENDCHAR
STARTCHAR uni0002
ENCODING 2
SWIDTH 108 0
DWIDTH 1 0
BBX 1 1 0 0
BITMAP
00
ENDCHAR
STARTCHAR uni0009
ENCODING 9
SWIDTH 108 0
DWIDTH 1 0
BBX 1 1 0 0
BITMAP
00
ENDCHAR
STARTCHAR uni000A
ENCODING 10
SWIDTH 108 0
DWIDTH 1 0
BBX 1 1 0 0
BITMAP
00
ENDCHAR
STARTCHAR uni000D
ENCODING 13
SWIDTH 108 0
DWIDTH 1 0
BBX 1 1 0 0
BITMAP
00
ENDCHAR
STARTCHAR space
ENCODING 32
SWIDTH 108 0
DWIDTH 1 0
BBX 1 1 0 0
BITMAP
00
ENDCHAR
STARTCHAR exclam
ENCODING 33
SWIDTH 336 0
DWIDTH 4 0
BBX 4 10 0 -1
BITMAP
5583
6683
6683
6683
6683
6683
4462
3661
3661
3661
ENDCHAR
STARTCHAR quotedbl
ENCODING 34
SWIDTH 538 0
DWIDTH 6 0
BBX 6 4 0 5
BITMAP
555555
666666
666666
333333
ENDCHAR
STARTCHAR numbersign
ENCODING 35
SWIDTH 1014 0
DWIDTH 11 0
BBX 11 11 0 -1
BITMAP
000122012200
000576066600
016768677850
026796589540
036985697530
005760666000
006660675000
277976896500
689888978400
167626662000
044404440000
ENDCHAR
STARTCHAR dollar
ENCODING 36
SWIDTH 686 0
DWIDTH 8 0
BBX 8 13 0 -2
BITMAP
00023000
00110100
06988861
47766840
66876200
56865600
27898760
03677791
00457692
07666880
48868840
00342100
00133000
ENDCHAR
STARTCHAR percent
ENCODING 37
SWIDTH 1504 0
DWIDTH 17 0
BBX 17 11 0 -1
BITMAP
001420000000000000
058885005640000000
477677408910000000
578787529700220000
578787566617997200
477677467577778700
058886089298777920
002420397197786830
000000666078778700
000000684027877300
000000671001551000
ENDCHAR
STARTCHAR ampersand
ENCODING 38
SWIDTH 1029 0
DWIDTH 11 0
BBX 11 9 0 0
BITMAP
026788287500
287999298600
678766298600
668655598750
587766698760
668666598760
668666399640
288988567960
047999516860
ENDCHAR
STARTCHAR quotesingle
ENCODING 39
SWIDTH 257 0
DWIDTH 3 0
BBX 3 4 0 5
BITMAP
5550
6660
6660
3330
ENDCHAR
STARTCHAR parenleft
ENCODING 40
SWIDTH 410 0
DWIDTH 5 0
BBX 5 11 0 -1
BITMAP
001310
048810
288610
668710
669200
669200
669200
669300
577810
087910
016610
ENDCHAR
STARTCHAR parenright
ENCODING 41
SWIDTH 408 0
DWIDTH 5 0
BBX 5 11 0 -1
BITMAP
320000
597100
478700
468910
067920
067920
067920
067910
588800
688400
463000
ENDCHAR
STARTCHAR asterisk
ENCODING 42
SWIDTH 664 0
DWIDTH 7 0
BBX 7 7 0 1
BITMAP
00354000
16877720
48866770
095D7A20
48866770
17978730
00465000
ENDCHAR
STARTCHAR plus
ENCODING 43
SWIDTH 601 0
DWIDTH 7 0
BBX 7 6 0 1
BITMAP
00986000
36988610
36987610
36988610
00986000
00100000
ENDCHAR
STARTCHAR comma
ENCODING 44
SWIDTH 252 0
DWIDTH 3 0
BBX 3 4 0 -2
BITMAP
5650
4650
3630
3500
ENDCHAR
STARTCHAR hyphen
ENCODING 45
SWIDTH 473 0
DWIDTH 5 0
BBX 5 3 0 3
BITMAP
366640
366640
366640
ENDCHAR
STARTCHAR period
ENCODING 46
SWIDTH 255 0
DWIDTH 3 0
BBX 3 2 0 0
BITMAP
5830
5930
ENDCHAR
STARTCHAR slash
ENCODING 47
SWIDTH 447 0
DWIDTH 5 0
BBX 5 10 0 -1
BITMAP
005650
006750
008910
029700
066600
067500
089100
297000
666000
675000
ENDCHAR
STARTCHAR zero
ENCODING 48
SWIDTH 843 0
DWIDTH 9 0
BBX 9 11 0 -1
BITMAP
0002420000
0179897300
0777677810
4877678860
6684008960
6791006980
6683008970
4877678760
0887668820
0288788400
0003540000
ENDCHAR
STARTCHAR one
ENCODING 49
SWIDTH 426 0
DWIDTH 5 0
BBX 5 9 0 0
BITMAP
588820
699920
066930
066930
066930
066930
066930
066930
066930
ENDCHAR
STARTCHAR two
ENCODING 50
SWIDTH 583 0
DWIDTH 6 0
BBX 7 10 0 0
BITMAP
03420000
69897300
36678700
16668910
00179800
00778500
05887000
27761000
58888500
59999600
ENDCHAR
STARTCHAR three
ENCODING 51
SWIDTH 612 0
DWIDTH 7 0
BBX 7 11 0 -1
BITMAP
03430000
69897300
36668710
16677750
02678640
02987900
02897840
16586750
36668820
68678400
14551000
ENDCHAR
STARTCHAR four
ENCODING 52
SWIDTH 622 0
DWIDTH 7 0
BBX 7 9 0 0
BITMAP
00566600
00788300
05877000
07785200
48873900
68887930
46666630
46667930
00003900
ENDCHAR
STARTCHAR five
ENCODING 53
SWIDTH 691 0
DWIDTH 8 0
BBX 8 10 0 -1
BITMAP
38888840
49999940
66600000
66777610
668A9770
45667793
00457684
07666881
58768830
01453000
ENDCHAR
STARTCHAR six
ENCODING 54
SWIDTH 781 0
DWIDTH 9 0
BBX 9 11 0 -1
BITMAP
0003420000
0379898400
1787677100
6687640000
6695776100
6797997700
6796677830
6687576840
2786668810
0478688300
0003530000
ENDCHAR
STARTCHAR seven
ENCODING 55
SWIDTH 631 0
DWIDTH 7 0
BBX 7 9 0 0
BITMAP
58878650
69986750
00067920
00089700
00397600
00667500
00679200
00897000
02976000
ENDCHAR
STARTCHAR eight
ENCODING 56
SWIDTH 808 0
DWIDTH 9 0
BBX 9 11 0 -1
BITMAP
0014430000
0698888400
4776668730
6687678660
7687669560
3879997820
6687887660
6686578660
5786767740
0687678600
0025652000
ENDCHAR
STARTCHAR nine
ENCODING 57
SWIDTH 782 0
DWIDTH 9 0
BBX 9 11 0 -1
BITMAP
0003310000
0589896100
4886687700
6786667920
6796576830
3778886830
0368876830
0015678920
0276678600
0787796100
0025520000
ENDCHAR
STARTCHAR colon
ENCODING 58
SWIDTH 262 0
DWIDTH 3 0
BBX 3 6 0 1
BITMAP
3620
3630
3520
3620
3620
3620
ENDCHAR
STARTCHAR semicolon
ENCODING 59
SWIDTH 261 0
DWIDTH 3 0
BBX 3 7 0 0
BITMAP
3620
3630
3520
3330
6660
2660
5710
ENDCHAR
STARTCHAR less
ENCODING 60
SWIDTH 670 0
DWIDTH 7 0
BBX 7 9 0 0
BITMAP
00000040
00026880
05696960
57787860
57878100
57768760
16787860
00046870
00000150
ENDCHAR
STARTCHAR equal
ENCODING 61
SWIDTH 473 0
DWIDTH 5 0
BBX 5 6 0 1
BITMAP
366640
366650
355540
366640
366640
366640
ENDCHAR
STARTCHAR greater
ENCODING 62
SWIDTH 670 0
DWIDTH 7 0
BBX 7 9 0 0
BITMAP
31000000
48640000
48787620
47877790
00577870
36978680
47878630
49751000
43000000
ENDCHAR
STARTCHAR question
ENCODING 63
SWIDTH 693 0
DWIDTH 8 0
BBX 8 10 0 0
BITMAP
00242000
48889720
17767880
00467684
04547793
06968770
06989720
04610000
08830000
09930000
ENDCHAR
STARTCHAR at
ENCODING 64
SWIDTH 1076 0
DWIDTH 12 0
BBX 12 11 0 -1
BITMAP
000266651000
006867668400
067865568740
388468764871
666679876665
666694586666
667786686666
477379688874
097754457760
019879920000
000566620000
ENDCHAR
STARTCHAR A
ENCODING 65
SWIDTH 936 0
DWIDTH 10 0
BBX 10 9 0 0
BITMAP
0006876000
0007779200
0048777600
0067788800
0188766850
0677638770
0789897892
3877889776
6784001888
ENDCHAR
STARTCHAR B
ENCODING 66
SWIDTH 862 0
DWIDTH 9 0
BBX 10 9 0 0
BITMAP
6788876500
6799998660
6687667880
6696557791
6697669770
6696666891
6696666891
6698889770
6698998710
ENDCHAR
STARTCHAR C
ENCODING 67
SWIDTH 852 0
DWIDTH 9 0
BBX 9 11 0 -1
BITMAP
0000331000
0068889610
0689668770
3887667620
6685002100
6891000000
6684001000
4887667620
0778667870
0068779720
0001552000
ENDCHAR
STARTCHAR D
ENCODING 68
SWIDTH 886 0
DWIDTH 10 0
BBX 10 9 0 0
BITMAP
6788876300
6799997840
6687678880
6693007784
6693006666
6693006784
6687668881
6788898840
6899997400
ENDCHAR
STARTCHAR E
ENCODING 69
SWIDTH 706 0
DWIDTH 8 0
BBX 8 9 0 0
BITMAP
55898882
669A9993
66930000
66986200
66986200
66986200
66930000
669A8883
669A9993
ENDCHAR
STARTCHAR F
ENCODING 70
SWIDTH 683 0
DWIDTH 8 0
BBX 8 9 0 0
BITMAP
55898881
669A9991
66930000
66930000
669A9980
66998870
66930000
66930000
66930000
ENDCHAR
STARTCHAR G
ENCODING 71
SWIDTH 908 0
DWIDTH 10 0
BBX 10 11 0 -1
BITMAP
0000331000
0068889610
0689668770
3887667620
6685002100
6891002644
6684003966
4777658966
0777568966
016876A966
0002553000
ENDCHAR
STARTCHAR H
ENCODING 72
SWIDTH 901 0
DWIDTH 10 0
BBX 10 9 0 0
BITMAP
5583004655
6693005766
6693005766
6698669766
6698669766
6698669766
6693005766
6693005766
6693005766
ENDCHAR
STARTCHAR I
ENCODING 73
SWIDTH 338 0
DWIDTH 4 0
BBX 4 9 0 0
BITMAP
5583
6693
6693
6693
6693
6693
6693
6693
6693
ENDCHAR
STARTCHAR J
ENCODING 74
SWIDTH 434 0
DWIDTH 5 0
BBX 5 10 0 -1
BITMAP
055640
066740
066740
066740
066740
066740
477930
578800
488300
451000
ENDCHAR
STARTCHAR K
ENCODING 75
SWIDTH 815 0
DWIDTH 9 0
BBX 9 9 0 0
BITMAP
5583066650
6693188810
6693677600
6694888100
6699767000
6695888100
6693677600
6693188810
6693067760
ENDCHAR
STARTCHAR L
ENCODING 76
SWIDTH 604 0
DWIDTH 7 0
BBX 7 9 0 0
BITMAP
55830000
66930000
66930000
66930000
66930000
66930000
66930000
669A8820
669A9930
ENDCHAR
STARTCHAR M
ENCODING 77
SWIDTH 920 0
DWIDTH 10 0
BBX 10 9 0 0
BITMAP
7770000678
6775004876
6688107886
6677657766
6688858976
6688787876
6695655976
6693001976
6693001976
ENDCHAR
STARTCHAR N
ENCODING 78
SWIDTH 877 0
DWIDTH 10 0
BBX 10 9 0 0
BITMAP
6777105682
6777606692
6688826692
6698776692
6678787692
6696888592
6693677792
6693178872
6693057792
ENDCHAR
STARTCHAR O
ENCODING 79
SWIDTH 933 0
DWIDTH 10 0
BBX 10 11 0 -1
BITMAP
0000341000
0068889710
0689668881
3887667886
6685002887
6891000698
6684001897
4887667886
0778668881
0068768710
0001553000
ENDCHAR
STARTCHAR P
ENCODING 80
SWIDTH 850 0
DWIDTH 9 0
BBX 9 9 0 0
BITMAP
6788876400
6799998740
6687678870
6693007990
6698998870
6697887840
6696666300
6693000000
6693000000
ENDCHAR
STARTCHAR Q
ENCODING 81
SWIDTH 937 0
DWIDTH 10 0
BBX 10 12 0 -2
BITMAP
0000341000
0068889710
0689668881
3887667886
6685002887
6891001698
6684156897
4887698886
0778668881
0068768860
0001553661
0000000100
ENDCHAR
STARTCHAR R
ENCODING 82
SWIDTH 843 0
DWIDTH 9 0
BBX 9 9 0 0
BITMAP
6788876400
6799998750
6687668870
6695337980
6698887870
6696667820
66966BA600
6693079800
6693067840
ENDCHAR
STARTCHAR S
ENCODING 83
SWIDTH 682 0
DWIDTH 8 0
BBX 8 11 0 -1
BITMAP
00143100
06988861
57766840
67866200
66865500
37898760
04677880
00557792
07666880
47868830
01454000
ENDCHAR
STARTCHAR T
ENCODING 84
SWIDTH 591 0
DWIDTH 7 0
BBX 7 9 0 0
BITMAP
58888810
69999910
02A76000
02966000
02966000
02966000
02966000
02966000
02966000
ENDCHAR
STARTCHAR U
ENCODING 85
SWIDTH 905 0
DWIDTH 10 0
BBX 10 10 0 -1
BITMAP
5582003755
6692004866
6692004866
6692004866
6692004866
6674005766
4877667783
0877667770
0178778700
0002552000
ENDCHAR
STARTCHAR V
ENCODING 86
SWIDTH 940 0
DWIDTH 10 0
BBX 10 9 0 0
BITMAP
6674000787
4876005866
0788106783
0677629870
0198767750
0067788810
0048787600
0007778300
0006987000
ENDCHAR
STARTCHAR W
ENCODING 87
SWIDTH 1161 0
DWIDTH 13 0
BBX 13 9 0 0
BITMAP
56822869056550
6665667A267930
29766798679800
07968997897600
06698689967500
057767A7979200
01868967897000
00798619866000
0088660A675000
ENDCHAR
STARTCHAR X
ENCODING 88
SWIDTH 876 0
DWIDTH 10 0
BBX 10 9 0 0
BITMAP
6666037771
1888477750
0587777700
0077888200
0028778000
0058777400
0188878810
0777667760
4887118883
ENDCHAR
STARTCHAR Y
ENCODING 89
SWIDTH 789 0
DWIDTH 9 0
BBX 9 9 0 0
BITMAP
5682056730
2876078700
0678677400
0386787000
0068775000
0048880000
0009860000
0009860000
0009860000
ENDCHAR
STARTCHAR Z
ENCODING 90
SWIDTH 854 0
DWIDTH 9 0
BBX 9 9 0 0
BITMAP
48888887A0
5999977870
4666368870
0004778860
0168877400
3778861000
4877456650
4875888880
6A89999990
ENDCHAR
STARTCHAR bracketleft
ENCODING 91
SWIDTH 320 0
DWIDTH 4 0
BBX 4 11 0 -1
BITMAP
2441
6782
6681
6660
6660
6660
6660
6660
6670
6892
5661
ENDCHAR
STARTCHAR backslash
ENCODING 92
SWIDTH 448 0
DWIDTH 5 0
BBX 5 10 0 -1
BITMAP
564000
666000
397000
089100
067500
066600
039700
008910
006750
006660
ENDCHAR
STARTCHAR bracketright
ENCODING 93
SWIDTH 319 0
DWIDTH 4 0
BBX 3 11 0 -1
BITMAP
3440
5880
4790
0890
0890
0890
0890
0890
2890
6990
4680
ENDCHAR
STARTCHAR asciicircum
ENCODING 94
SWIDTH 475 0
DWIDTH 5 0
BBX 5 5 0 3
BITMAP
027400
067600
077920
480660
330330
ENDCHAR
STARTCHAR underscore
ENCODING 95
SWIDTH 511 0
DWIDTH 6 0
BBX 6 2 0 -2
BITMAP
599991
488881
ENDCHAR
STARTCHAR grave
ENCODING 96
SWIDTH 472 0
DWIDTH 5 0
BBX 5 4 0 7
BITMAP
040000
387400
016840
000100
ENDCHAR
STARTCHAR a
ENCODING 97
SWIDTH 832 0
DWIDTH 9 0
BBX 9 9 0 -1
BITMAP
0057875000
0778997700
5778687750
6793039760
6891009860
6777549860
1887559860
0179869860
0001210000
ENDCHAR
STARTCHAR b
ENCODING 98
SWIDTH 720 0
DWIDTH 8 0
BBX 8 8 0 0
BITMAP
56666630
68999713
66833866
66888835
66999914
66600766
66999835
66533560
ENDCHAR
STARTCHAR c
ENCODING 99
SWIDTH 736 0
DWIDTH 8 0
BBX 8 10 0 -1
BITMAP
00001000
00689861
07797885
57876740
67930100
68910000
67876630
18876784
02786883
00035400
ENDCHAR
STARTCHAR d
ENCODING 100
SWIDTH 833 0
DWIDTH 9 0
BBX 9 8 0 0
BITMAP
5666665000
6899977700
6699997750
6693048760
6693019860
6687677760
6788897810
6899986100
ENDCHAR
STARTCHAR e
ENCODING 101
SWIDTH 666 0
DWIDTH 7 0
BBX 7 8 0 0
BITMAP
44676650
669A9980
66953330
66987750
669B9960
66941110
669A8870
669A9980
ENDCHAR
STARTCHAR f
ENCODING 102
SWIDTH 625 0
DWIDTH 7 0
BBX 7 8 0 0
BITMAP
44676630
669A9940
66953320
66986610
66997720
66975510
66930000
66930000
ENDCHAR
STARTCHAR g
ENCODING 103
SWIDTH 827 0
DWIDTH 9 0
BBX 9 10 0 -1
BITMAP
0000100000
0068986100
0779788500
5787674000
6793010000
6891018750
6787579760
1887679760
0278689760
0003540000
ENDCHAR
STARTCHAR h
ENCODING 104
SWIDTH 830 0
DWIDTH 9 0
BBX 9 8 0 0
BITMAP
4462017540
6693019760
6693029760
669A9A9760
6699889760
6693019760
6693019760
6693019760
ENDCHAR
STARTCHAR i
ENCODING 105
SWIDTH 337 0
DWIDTH 4 0
BBX 4 8 0 0
BITMAP
4462
6693
6693
6693
6693
6693
6693
6693
ENDCHAR
STARTCHAR j
ENCODING 106
SWIDTH 393 0
DWIDTH 4 0
BBX 4 10 0 -2
BITMAP
0575
0797
0797
0797
0797
0797
5887
5883
7840
1000
ENDCHAR
STARTCHAR k
ENCODING 107
SWIDTH 801 0
DWIDTH 9 0
BBX 9 8 0 0
BITMAP
4462055540
6693288710
6693677500
6690887000
6692776000
6693788300
6693487700
6693077840
ENDCHAR
STARTCHAR l
ENCODING 108
SWIDTH 583 0
DWIDTH 6 0
BBX 7 8 0 0
BITMAP
44620000
66930000
66930000
66930000
66930000
66930000
669A8800
669A9910
ENDCHAR
STARTCHAR m
ENCODING 109
SWIDTH 1167 0
DWIDTH 13 0
BBX 13 9 0 0
BITMAP
00011000100000
03699888986200
2787789B787700
66866878677740
66920896057660
66920896057660
66920896057660
66920896057660
66920896057660
ENDCHAR
STARTCHAR n
ENCODING 110
SWIDTH 787 0
DWIDTH 9 0
BBX 9 8 0 0
BITMAP
5655004720
6778506920
6788816920
6687766920
6678885920
6666777820
6660788820
6660488920
ENDCHAR
STARTCHAR o
ENCODING 111
SWIDTH 833 0
DWIDTH 9 0
BBX 9 10 0 -1
BITMAP
0000100000
0068986100
0779797800
5787678750
6793029960
6891009960
6787678760
1887678810
0278787300
0003540000
ENDCHAR
STARTCHAR p
ENCODING 112
SWIDTH 781 0
DWIDTH 9 0
BBX 9 8 0 0
BITMAP
5666655000
6899987600
6699987810
6696676830
6696668800
6697788400
6695441000
6693000000
ENDCHAR
STARTCHAR q
ENCODING 113
SWIDTH 788 0
DWIDTH 9 0
BBX 9 10 0 -2
BITMAP
0066666720
0777998920
5779987920
6792066920
6787676920
4886676920
0688776920
0014576920
0000066920
0000011100
ENDCHAR
STARTCHAR r
ENCODING 114
SWIDTH 831 0
DWIDTH 9 0
BBX 9 8 0 0
BITMAP
5666666200
6899997730
6699998860
6696668860
6696667760
6698889800
66957A8600
6693089700
ENDCHAR
STARTCHAR s
ENCODING 115
SWIDTH 683 0
DWIDTH 8 0
BBX 8 9 0 -1
BITMAP
04687640
47899861
67701400
67876610
06999780
01012792
17867880
36999730
00121000
ENDCHAR
STARTCHAR t
ENCODING 116
SWIDTH 588 0
DWIDTH 6 0
BBX 7 8 0 0
BITMAP
46666610
69999910
24877300
02966000
02966000
02966000
02966000
02966000
ENDCHAR
STARTCHAR u
ENCODING 117
SWIDTH 795 0
DWIDTH 9 0
BBX 9 9 0 -1
BITMAP
4472044630
6692066840
6692066840
6692066840
6692066840
6677677920
1797677600
0378686100
0004530000
ENDCHAR
STARTCHAR v
ENCODING 118
SWIDTH 855 0
DWIDTH 9 0
BBX 10 8 0 0
BITMAP
5563005661
5776039770
0898166750
0667688800
0298776600
0077778200
0056877000
000A675000
ENDCHAR
STARTCHAR w
ENCODING 119
SWIDTH 1129 0
DWIDTH 12 0
BBX 12 9 0 -1
BITMAP
447227440476
669229660699
669229660699
669229660699
669229660699
668777696798
288668996876
048998999960
000220013100
ENDCHAR
STARTCHAR x
ENCODING 120
SWIDTH 790 0
DWIDTH 9 0
BBX 9 8 0 0
BITMAP
5555166630
1888877700
0587888200
0068885000
0078783000
0388878000
0788878600
6887388830
ENDCHAR
STARTCHAR y
ENCODING 121
SWIDTH 733 0
DWIDTH 8 0
BBX 8 8 0 0
BITMAP
45610665
38765774
06877870
03877750
00688700
00486600
00486600
00486600
ENDCHAR
STARTCHAR z
ENCODING 122
SWIDTH 714 0
DWIDTH 8 0
BBX 8 8 0 0
BITMAP
36666552
59988882
23387760
00587710
01878400
07777000
48886884
57889994
ENDCHAR
STARTCHAR braceleft
ENCODING 123
SWIDTH 396 0
DWIDTH 4 0
BBX 5 13 0 -3
BITMAP
001400
048810
088600
098000
098000
377000
685000
487000
098000
098000
088600
058710
002500
ENDCHAR
STARTCHAR bar
ENCODING 124
SWIDTH 266 0
DWIDTH 3 0
BBX 3 11 0 -2
BITMAP
5550
6660
6660
6660
6660
6660
6660
6660
6660
6660
1110
ENDCHAR
STARTCHAR braceright
ENCODING 125
SWIDTH 396 0
DWIDTH 4 0
BBX 4 13 0 -3
BITMAP
3300
5870
4784
0666
0666
0666
0388
0657
0666
0666
4784
5870
3300
ENDCHAR
STARTCHAR asciitilde
ENCODING 126
SWIDTH 665 0
DWIDTH 7 0
BBX 7 3 0 6
BITMAP
01222010
48999870
55466640
ENDCHAR
STARTCHAR uni00A0
ENCODING 160
SWIDTH 108 0
DWIDTH 1 0
BBX 1 1 0 0
BITMAP
00
ENDCHAR
STARTCHAR exclamdown
ENCODING 161
SWIDTH 336 0
DWIDTH 4 0
BBX 4 10 0 -1
BITMAP
5583
6683
6683
6683
6683
6683
4462
3661
3661
3661
ENDCHAR
STARTCHAR cent
ENCODING 162
SWIDTH 708 0
DWIDTH 8 0
BBX 8 11 0 -1
BITMAP
00055000
00134400
04866882
28878772
66874510
67910000
66875610
18867762
03876871
00123300
00065000
ENDCHAR
STARTCHAR sterling
ENCODING 163
SWIDTH 689 0
DWIDTH 8 0
BBX 8 10 0 0
BITMAP
00134100
05898871
38866840
66876300
66943310
66978820
66966610
66920000
66998820
669A9920
ENDCHAR
STARTCHAR currency
ENCODING 164
SWIDTH 715 0
DWIDTH 8 0
BBX 8 10 0 -1
BITMAP
02000010
27600762
38887882
07745760
07400660
07500660
07755760
48877883
27500661
01000010
ENDCHAR
STARTCHAR yen
ENCODING 165
SWIDTH 796 0
DWIDTH 9 0
BBX 9 9 0 0
BITMAP
5682046640
2876078800
0679677500
0286788000
0068875000
0038881000
0459966300
0459966300
0009960000
ENDCHAR
STARTCHAR brokenbar
ENCODING 166
SWIDTH 263 0
DWIDTH 3 0
BBX 3 11 0 -2
BITMAP
5550
6660
6660
6660
2220
1110
6660
6660
6660
6660
1110
ENDCHAR
STARTCHAR section
ENCODING 167
SWIDTH 108 0
DWIDTH 1 0
BBX 1 1 0 0
BITMAP
00
ENDCHAR
STARTCHAR dieresis
ENCODING 168
SWIDTH 556 0
DWIDTH 6 0
BBX 6 2 0 8
BITMAP
222132
555375
ENDCHAR
STARTCHAR copyright
ENCODING 169
SWIDTH 869 0
DWIDTH 10 0
BBX 10 10 0 0
BITMAP
0001430000
0188459400
0926993740
45850060A0
9190000072
9190000063
63A2002091
192A897370
0393116800
0016883000
ENDCHAR
STARTCHAR ordfeminine
ENCODING 170
SWIDTH 833 0
DWIDTH 9 0
BBX 9 9 0 -1
BITMAP
0057875000
0678997700
4778687750
6584039860
6792008960
5777548960
0888558960
0179878960
0001210000
ENDCHAR
STARTCHAR guillemotleft
ENCODING 171
SWIDTH 911 0
DWIDTH 10 0
BBX 10 6 0 1
BITMAP
0004400054
2678426784
5797467973
5776467764
1678416784
0003400044
ENDCHAR
STARTCHAR logicalnot
ENCODING 172
SWIDTH 718 0
DWIDTH 8 0
BBX 8 4 0 2
BITMAP
36666855
59999A66
12222766
00000444
ENDCHAR
STARTCHAR registered
ENCODING 174
SWIDTH 869 0
DWIDTH 10 0
BBX 10 10 0 0
BITMAP
0001430000
0188459400
0924430740
450B5690A0
900901A072
900C9C3063
6309082091
1906025370
0393006800
0016883000
ENDCHAR
STARTCHAR degree
ENCODING 176
SWIDTH 330 0
DWIDTH 4 0
BBX 4 4 0 8
BITMAP
0430
5672
5672
0430
ENDCHAR
STARTCHAR plusminus
ENCODING 177
SWIDTH 598 0
DWIDTH 7 0
BBX 7 7 0 0
BITMAP
00986000
46988610
36988610
46988610
00986000
16666500
16666500
ENDCHAR
STARTCHAR uni00B2
ENCODING 178
SWIDTH 435 0
DWIDTH 5 0
BBX 5 8 0 1
BITMAP
367610
264760
003820
018600
077000
473100
699910
111100
ENDCHAR
STARTCHAR uni00B3
ENCODING 179
SWIDTH 515 0
DWIDTH 6 0
BBX 6 8 0 1
BITMAP
477710
4A9770
112890
059870
048883
155775
266781
366610
ENDCHAR
STARTCHAR acute
ENCODING 180
SWIDTH 472 0
DWIDTH 5 0
BBX 5 4 0 7
BITMAP
000310
037850
386200
010000
ENDCHAR
STARTCHAR uni00B5
ENCODING 181
SWIDTH 802 0
DWIDTH 9 0
BBX 9 10 0 -2
BITMAP
4462045440
6683057660
6683057660
6683057660
6683056650
6686577830
6687678700
6687687200
6686630000
1110000000
ENDCHAR
STARTCHAR paragraph
ENCODING 182
SWIDTH 676 0
DWIDTH 7 0
BBX 7 10 0 -2
BITMAP
01666680
18789980
56897980
66877980
57767980
07877980
00247980
00006980
00007990
00002120
ENDCHAR
STARTCHAR periodcentered
ENCODING 183
SWIDTH 260 0
DWIDTH 3 0
BBX 3 3 0 4
BITMAP
1310
5930
3620
ENDCHAR
STARTCHAR cedilla
ENCODING 184
SWIDTH 321 0
DWIDTH 4 0
BBX 3 5 0 -5
BITMAP
0140
38A0
6710
4890
0120
ENDCHAR
STARTCHAR uni00B9
ENCODING 185
SWIDTH 359 0
DWIDTH 4 0
BBX 4 7 0 2
BITMAP
5884
3886
0666
0666
0666
0666
0222
ENDCHAR
STARTCHAR ordmasculine
ENCODING 186
SWIDTH 835 0
DWIDTH 9 0
BBX 9 10 0 -1
BITMAP
0000100000
0068996100
0779797800
4887678760
6784018960
6792008960
5777678760
0777678820
0278787300
0003540000
ENDCHAR
STARTCHAR guillemotright
ENCODING 187
SWIDTH 912 0
DWIDTH 10 0
BBX 10 6 0 1
BITMAP
3500044000
4786248762
3797647975
3677646776
3876248761
3400044000
ENDCHAR
STARTCHAR onequarter
ENCODING 188
SWIDTH 1236 0
DWIDTH 14 0
BBX 14 10 0 -1
BITMAP
68830078100000
38860297001100
06660666048700
06660675077600
06660891388320
06662970666650
02226660799993
00006750577772
00008910000650
00029700000000
ENDCHAR
STARTCHAR onehalf
ENCODING 189
SWIDTH 1154 0
DWIDTH 13 0
BBX 13 10 0 -1
BITMAP
68830078100000
38860297000000
06660666389710
06660675243850
06660891004810
06662970028400
02226660076000
00006750583300
00008910799910
00029700000000
ENDCHAR
STARTCHAR threequarters
ENCODING 190
SWIDTH 1345 0
DWIDTH 15 0
BBX 15 10 0 -1
BITMAP
4776100565000000
4A97700675011100
1128900792288200
0598702970677000
0488825761884400
1557846755764810
2667817925999950
3666129704777740
0000057600003800
0000067500000000
ENDCHAR
STARTCHAR questiondown
ENCODING 191
SWIDTH 693 0
DWIDTH 8 0
BBX 8 10 0 0
BITMAP
00242000
48889720
17767880
00467684
04547793
06968770
06989720
04610000
08830000
09930000
ENDCHAR
STARTCHAR Agrave
ENCODING 192
SWIDTH 936 0
DWIDTH 10 0
BBX 10 13 0 0
BITMAP
0030000000
0277500000
0005770000
0000010000
0006876000
0007779200
0048777600
0067788800
0188766850
0677638770
0789897892
3877889776
6784001888
ENDCHAR
STARTCHAR Aacute
ENCODING 193
SWIDTH 936 0
DWIDTH 10 0
BBX 10 13 0 0
BITMAP
0000000400
0000047840
0000486100
0000010000
0006876000
0007779200
0048777600
0067788800
0188766850
0677638770
0789897892
3877889776
6784001888
ENDCHAR
STARTCHAR Acircumflex
ENCODING 194
SWIDTH 936 0
DWIDTH 10 0
BBX 10 13 0 0
BITMAP
0000870000
0001785000
0004544000
0000000000
0006876000
0007779200
0048777600
0067788800
0188766850
0677638770
0789897892
3877889776
6784001888
ENDCHAR
STARTCHAR Atilde
ENCODING 195
SWIDTH 936 0
DWIDTH 10 0
BBX 10 13 0 0
BITMAP
0002221110
0079997650
0173666610
0000000000
0006876000
0007779200
0048777600
0067788800
0188766850
0677638770
0789897892
3877889776
6784001888
ENDCHAR
STARTCHAR Adieresis
ENCODING 196
SWIDTH 936 0
DWIDTH 10 0
BBX 10 12 0 0
BITMAP
0022213200
0055528500
0000000000
0006876000
0007779200
0048777600
0067788800
0188766850
0677638770
0789897892
3877889776
6784001888
ENDCHAR
STARTCHAR Aring
ENCODING 197
SWIDTH 936 0
DWIDTH 10 0
BBX 10 13 0 0
BITMAP
0000340000
0002765000
0003665000
0000340000
0006876000
0007779200
0048777600
0067788800
0188766850
0677638770
0789897892
3877889776
6784001888
ENDCHAR
STARTCHAR AE
ENCODING 198
SWIDTH 1198 0
DWIDTH 13 0
BBX 13 9 0 0
BITMAP
00068788888860
0007788A999970
00487767000000
00677898666610
01887678966610
06776387866610
07888978910000
387788976A8860
67840018899970
ENDCHAR
STARTCHAR Ccedilla
ENCODING 199
SWIDTH 852 0
DWIDTH 9 0
BBX 9 15 0 -5
BITMAP
0000331000
0068889610
0689668770
3887667620
6685002100
6891000000
6684001000
4887667620
0778667870
0068779720
0001782000
0005870000
0006710000
0006870000
0000110000
ENDCHAR
STARTCHAR Egrave
ENCODING 200
SWIDTH 706 0
DWIDTH 8 0
BBX 8 13 0 0
BITMAP
04000000
38740000
01684000
00010000
55898882
669A9993
66930000
66986200
66986200
66986200
66930000
669A8883
669A9993
ENDCHAR
STARTCHAR Eacute
ENCODING 201
SWIDTH 706 0
DWIDTH 8 0
BBX 8 13 0 0
BITMAP
00000030
00005772
00067500
00000000
55898882
669A9993
66930000
66986200
66986200
66986200
66930000
669A8883
669A9993
ENDCHAR
STARTCHAR Ecircumflex
ENCODING 202
SWIDTH 706 0
DWIDTH 8 0
BBX 8 13 0 0
BITMAP
000A6000
00469200
00445400
00000000
55898882
669A9993
66930000
66986200
66986200
66986200
66930000
669A8883
669A9993
ENDCHAR
STARTCHAR Edieresis
ENCODING 203
SWIDTH 706 0
DWIDTH 8 0
BBX 8 12 0 0
BITMAP
02312220
05735550
00000000
55898882
669A9993
66930000
66986200
66986200
66986200
66930000
669A8883
669A9993
ENDCHAR
STARTCHAR Igrave
ENCODING 204
SWIDTH 338 0
DWIDTH 4 0
BBX 6 13 -2 0
BITMAP
030000
487400
016840
000100
005583
006693
006693
006693
006693
006693
006693
006693
006693
ENDCHAR
STARTCHAR Iacute
ENCODING 205
SWIDTH 338 0
DWIDTH 4 0
BBX 6 13 0 0
BITMAP
000030
005772
077500
010000
558300
669300
669300
669300
669300
669300
669300
669300
669300
ENDCHAR
STARTCHAR Icircumflex
ENCODING 206
SWIDTH 338 0
DWIDTH 4 0
BBX 4 13 0 0
BITMAP
0A60
5681
4454
0000
5583
6693
6693
6693
6693
6693
6693
6693
6693
ENDCHAR
STARTCHAR Idieresis
ENCODING 207
SWIDTH 338 0
DWIDTH 4 0
BBX 6 12 -1 0
BITMAP
231222
582555
000000
055830
066930
066930
066930
066930
066930
066930
066930
066930
ENDCHAR
STARTCHAR Eth
ENCODING 208
SWIDTH 905 0
DWIDTH 10 0
BBX 10 9 0 0
BITMAP
4788876400
5889998850
5767678782
6988206766
4666203866
5888206766
5767668782
5778888860
5899997500
ENDCHAR
STARTCHAR Ntilde
ENCODING 209
SWIDTH 877 0
DWIDTH 10 0
BBX 10 13 0 0
BITMAP
0002220100
0289997810
0554666500
0000000000
6777105682
6777606692
6688826692
6698776692
6678787692
6696888592
6693677792
6693178872
6693057792
ENDCHAR
STARTCHAR Ograve
ENCODING 210
SWIDTH 933 0
DWIDTH 10 0
BBX 10 14 0 -1
BITMAP
0030000000
0277500000
0005760000
0000331000
0068889710
0689668881
3887667886
6685002887
6891000698
6684001897
4887667886
0778668881
0068768710
0001553000
ENDCHAR
STARTCHAR Oacute
ENCODING 211
SWIDTH 933 0
DWIDTH 10 0
BBX 10 14 0 -1
BITMAP
0000000400
0000047840
0000486100
0000341000
0068889710
0689668881
3887667886
6685002887
6891000698
6684001897
4887667886
0778668881
0068768710
0001553000
ENDCHAR
STARTCHAR Ocircumflex
ENCODING 212
SWIDTH 933 0
DWIDTH 10 0
BBX 10 14 0 -1
BITMAP
0000870000
0001785000
0004544000
0000341000
0068889710
0689668881
3887667886
6685002887
6891000698
6684001897
4887667886
0778668881
0068768710
0001553000
ENDCHAR
STARTCHAR Otilde
ENCODING 213
SWIDTH 933 0
DWIDTH 10 0
BBX 10 14 0 -1
BITMAP
0002221110
0079997650
0173666610
0000341000
0068889710
0689668881
3887667886
6685002887
6891000698
6684001897
4887667886
0778668881
0068768710
0001553000
ENDCHAR
STARTCHAR Odieresis
ENCODING 214
SWIDTH 933 0
DWIDTH 10 0
BBX 10 13 0 -1
BITMAP
0022213200
0055528500
0000341000
0068889710
0689668881
3887667886
6685002887
6891000698
6684001897
4887667886
0778668881
0068768710
0001553000
ENDCHAR
STARTCHAR multiply
ENCODING 215
SWIDTH 790 0
DWIDTH 9 0
BBX 9 8 0 0
BITMAP
5555166630
1888877700
0587888200
0068885000
0078783000
0388878000
0788878600
6887388830
ENDCHAR
STARTCHAR Oslash
ENCODING 216
SWIDTH 938 0
DWIDTH 10 0
BBX 10 13 0 -2
BITMAP
0000000300
0000344850
0068889840
0689668881
3887667886
6685002897
6891000698
6684001797
4887667786
0778668881
0178768820
0676553000
0042000000
ENDCHAR
STARTCHAR Ugrave
ENCODING 217
SWIDTH 905 0
DWIDTH 10 0
BBX 10 14 0 -1
BITMAP
0040000000
0387400000
0016850000
0000100000
5582003755
6692004866
6692004866
6692004866
6692004866
6674005766
4877667783
0877667770
0178778700
0002552000
ENDCHAR
STARTCHAR Uacute
ENCODING 218
SWIDTH 905 0
DWIDTH 10 0
BBX 10 14 0 -1
BITMAP
0000000300
0000057820
0000675000
0000000000
5582003755
6692004866
6692004866
6692004866
6692004866
6674005766
4877667783
0877667770
0178778700
0002552000
ENDCHAR
STARTCHAR Ucircumflex
ENCODING 219
SWIDTH 905 0
DWIDTH 10 0
BBX 10 14 0 -1
BITMAP
0000A60000
0003692000
0004454000
0000000000
5582003755
6692004866
6692004866
6692004866
6692004866
6674005766
4877667783
0877667770
0178778700
0002552000
ENDCHAR
STARTCHAR Udieresis
ENCODING 220
SWIDTH 905 0
DWIDTH 10 0
BBX 10 13 0 -1
BITMAP
0022122200
0057355500
0000000000
5582003755
6692004866
6692004866
6692004866
6692004866
6674005766
4877667783
0877667770
0178778700
0002552000
ENDCHAR
STARTCHAR Yacute
ENCODING 221
SWIDTH 789 0
DWIDTH 9 0
BBX 9 13 0 0
BITMAP
0000003100
0000368500
0003862000
0000100000
5682056730
2876078700
0678677400
0386787000
0068775000
0048880000
0009860000
0009860000
0009860000
ENDCHAR
STARTCHAR Thorn
ENCODING 222
SWIDTH 798 0
DWIDTH 9 0
BBX 9 11 0 -1
BITMAP
2221000000
6687420000
6689797100
6688678700
6688677840
6683057660
6687677840
6687678700
6687787200
6686530000
5573000000
ENDCHAR
STARTCHAR germandbls
ENCODING 223
SWIDTH 826 0
DWIDTH 9 0
BBX 9 11 0 -1
BITMAP
0014441000
0588888500
3776667730
6677678660
6696677750
6698998840
6694349860
6696668760
6698888730
6698997400
4572000000
ENDCHAR
STARTCHAR agrave
ENCODING 224
SWIDTH 832 0
DWIDTH 9 0
BBX 9 13 0 -1
BITMAP
0210000000
0686200000
0037810000
0000100000
0057875000
0778997700
5778687750
6793039760
6891009860
6777549860
1887559860
0179869860
0001210000
ENDCHAR
STARTCHAR aacute
ENCODING 225
SWIDTH 832 0
DWIDTH 9 0
BBX 9 13 0 -1
BITMAP
0000002200
0000268600
0002873000
0000100000
0057875000
0778997700
5778687750
6793039760
6891009860
6777549860
1887559860
0179869860
0001210000
ENDCHAR
STARTCHAR acircumflex
ENCODING 226
SWIDTH 832 0
DWIDTH 9 0
BBX 9 12 0 -1
BITMAP
0005840000
0006760000
0016560000
0057875000
0778997700
5778687750
6793039760
6891009860
6777549860
1887559860
0179869860
0001210000
ENDCHAR
STARTCHAR atilde
ENCODING 227
SWIDTH 832 0
DWIDTH 9 0
BBX 9 12 0 -1
BITMAP
0012211100
0589987600
0556666300
0057875000
0778997700
5778687750
6793039760
6891009860
6777549860
1887559860
0179869860
0001210000
ENDCHAR
STARTCHAR adieresis
ENCODING 228
SWIDTH 832 0
DWIDTH 9 0
BBX 9 12 0 -1
BITMAP
0132023000
0285068100
0000000000
0057875000
0778997700
5778687750
6793039760
6891009860
6777549860
1887559860
0179869860
0001210000
ENDCHAR
STARTCHAR aring
ENCODING 229
SWIDTH 832 0
DWIDTH 9 0
BBX 9 13 0 -1
BITMAP
0001410000
0007570000
0008580000
0002420000
0057875000
0778997700
5778687750
6793039760
6891009860
6777549860
1887559860
0179869860
0001210000
ENDCHAR
STARTCHAR ae
ENCODING 230
SWIDTH 1166 0
DWIDTH 13 0
BBX 13 9 0 -1
BITMAP
00578754666620
07789979999930
57786877B33310
67930397977710
68910098999920
67775498611100
18875598888830
01798698999940
00012100000000
ENDCHAR
STARTCHAR ccedilla
ENCODING 231
SWIDTH 736 0
DWIDTH 8 0
BBX 8 14 0 -5
BITMAP
00001000
00689861
07797885
57876740
67930100
68910000
67876630
18876784
02786883
00049500
00289200
00572000
00289100
00012000
ENDCHAR
STARTCHAR egrave
ENCODING 232
SWIDTH 666 0
DWIDTH 7 0
BBX 7 12 0 0
BITMAP
13000000
58630000
02683000
00010000
44676650
669A9980
66953330
66987750
669B9960
66941110
669A8870
669A9980
ENDCHAR
STARTCHAR eacute
ENCODING 233
SWIDTH 666 0
DWIDTH 7 0
BBX 8 12 0 0
BITMAP
00000130
00016871
00077400
00010000
44676650
669A9980
66953330
66987750
669B9960
66941110
669A8870
669A9980
ENDCHAR
STARTCHAR ecircumflex
ENCODING 234
SWIDTH 666 0
DWIDTH 7 0
BBX 7 11 0 0
BITMAP
00196000
00678000
00556200
44676650
669A9980
66953330
66987750
669B9960
66941110
669A8870
669A9980
ENDCHAR
STARTCHAR edieresis
ENCODING 235
SWIDTH 666 0
DWIDTH 7 0
BBX 7 11 0 0
BITMAP
03302220
07805640
00000000
44676650
669A9980
66953330
66987750
669B9960
66941110
669A8870
669A9980
ENDCHAR
STARTCHAR igrave
ENCODING 236
SWIDTH 337 0
DWIDTH 4 0
BBX 6 12 -2 0
BITMAP
030000
487400
016840
000100
004462
006693
006693
006693
006693
006693
006693
006693
ENDCHAR
STARTCHAR iacute
ENCODING 237
SWIDTH 337 0
DWIDTH 4 0
BBX 6 12 0 0
BITMAP
000030
005772
077500
010000
446200
669300
669300
669300
669300
669300
669300
669300
ENDCHAR
STARTCHAR icircumflex
ENCODING 238
SWIDTH 337 0
DWIDTH 4 0
BBX 4 11 0 0
BITMAP
0A60
5681
4454
4462
6693
6693
6693
6693
6693
6693
6693
ENDCHAR
STARTCHAR idieresis
ENCODING 239
SWIDTH 337 0
DWIDTH 4 0
BBX 6 11 -1 0
BITMAP
231222
582555
000000
044620
066930
066930
066930
066930
066930
066930
066930
ENDCHAR
STARTCHAR eth
ENCODING 240
SWIDTH 783 0
DWIDTH 9 0
BBX 9 11 0 -1
BITMAP
0013410000
0788896000
0386687600
0016678910
0056576930
1876676930
7789A76930
6886678910
5776677700
0697687100
0024520000
ENDCHAR
STARTCHAR ntilde
ENCODING 241
SWIDTH 787 0
DWIDTH 9 0
BBX 9 11 0 0
BITMAP
0012211100
0689987600
0646666200
5655004720
6778506920
6788816920
6687766920
6678885920
6666777820
6660788820
6660488920
ENDCHAR
STARTCHAR ograve
ENCODING 242
SWIDTH 833 0
DWIDTH 9 0
BBX 9 13 0 -1
BITMAP
0220000000
0686200000
0036820000
0000100000
0068986100
0779797800
5787678750
6793029960
6891009960
6787678760
1887678810
0278787300
0003540000
ENDCHAR
STARTCHAR oacute
ENCODING 243
SWIDTH 833 0
DWIDTH 9 0
BBX 9 13 0 -1
BITMAP
0000002200
0000268600
0001873000
0000200000
0068986100
0779797800
5787678750
6793029960
6891009960
6787678760
1887678810
0278787300
0003540000
ENDCHAR
STARTCHAR ocircumflex
ENCODING 244
SWIDTH 833 0
DWIDTH 9 0
BBX 9 12 0 -1
BITMAP
0004850000
0006870000
0005361000
0068986100
0779797800
5787678750
6793029960
6891009960
6787678760
1887678810
0278787300
0003540000
ENDCHAR
STARTCHAR otilde
ENCODING 245
SWIDTH 833 0
DWIDTH 9 0
BBX 9 12 0 -1
BITMAP
0012221100
0589998600
0555876400
0068986100
0779797800
5787678750
6793029960
6891009960
6787678760
1887678810
0278787300
0003540000
ENDCHAR
STARTCHAR odieresis
ENCODING 246
SWIDTH 833 0
DWIDTH 9 0
BBX 9 12 0 -1
BITMAP
0032023100
0186058200
0000100000
0068986100
0779797800
5787678750
6793029960
6891009960
6787678760
1887678810
0278787300
0003540000
ENDCHAR
STARTCHAR divide
ENCODING 247
SWIDTH 260 0
DWIDTH 3 0
BBX 5 7 -1 0
BITMAP
055500
066600
133310
144410
023200
066600
033300
ENDCHAR
STARTCHAR oslash
ENCODING 248
SWIDTH 832 0
DWIDTH 9 0
BBX 9 10 0 -1
BITMAP
0000116200
0068988600
0779797800
5877677750
6793029860
6891009960
6777678760
1887678810
0578787300
0274540000
ENDCHAR
STARTCHAR ugrave
ENCODING 249
SWIDTH 795 0
DWIDTH 9 0
BBX 9 13 0 -1
BITMAP
0310000000
1786100000
0047810000
0000100000
4472044630
6692066840
6692066840
6692066840
6692066840
6677677920
1797677600
0378686100
0004530000
ENDCHAR
STARTCHAR uacute
ENCODING 250
SWIDTH 795 0
DWIDTH 9 0
BBX 9 13 0 -1
BITMAP
0000003100
0000368500
0003862000
0000100000
4472044630
6692066840
6692066840
6692066840
6692066840
6677677920
1797677600
0378686100
0004530000
ENDCHAR
STARTCHAR ucircumflex
ENCODING 251
SWIDTH 795 0
DWIDTH 9 0
BBX 9 12 0 -1
BITMAP
0005820000
0007760000
0026550000
4472044630
6692066840
6692066840
6692066840
6692066840
6677677920
1797677600
0378686100
0004530000
ENDCHAR
STARTCHAR udieresis
ENCODING 252
SWIDTH 795 0
DWIDTH 9 0
BBX 9 12 0 -1
BITMAP
0132033000
0375078000
0000000000
4472044630
6692066840
6692066840
6692066840
6692066840
6677677920
1797677600
0378686100
0004530000
ENDCHAR
STARTCHAR yacute
ENCODING 253
SWIDTH 733 0
DWIDTH 8 0
BBX 8 12 0 0
BITMAP
00000040
00005783
00058610
00001000
45610665
38765774
06877870
03877750
00688700
00486600
00486600
00486600
ENDCHAR
STARTCHAR thorn
ENCODING 254
SWIDTH 833 0
DWIDTH 9 0
BBX 9 11 0 -2
BITMAP
5583000000
6683000000
6680665100
6680667820
6682998760
6680668950
6681887760
6680667710
6680665000
6683000000
1110000000
ENDCHAR
STARTCHAR ydieresis
ENCODING 255
SWIDTH 733 0
DWIDTH 8 0
BBX 8 11 0 0
BITMAP
02221220
05654650
00000000
45610665
38765774
06877870
03877750
00688700
00486600
00486600
00486600
ENDCHAR
STARTCHAR Amacron
ENCODING 256
SWIDTH 936 0
DWIDTH 10 0
BBX 10 9 0 0
BITMAP
0006876000
0007779200
0048777600
0067788800
0188766850
0677638770
0789897892
3877889776
6784001888
ENDCHAR
STARTCHAR amacron
ENCODING 257
SWIDTH 832 0
DWIDTH 9 0
BBX 9 9 0 -1
BITMAP
0057875000
0778997700
5778687750
6793039760
6891009860
6777549860
1887559860
0179869860
0001210000
ENDCHAR
STARTCHAR Abreve
ENCODING 258
SWIDTH 936 0
DWIDTH 10 0
BBX 10 11 0 0
BITMAP
0004656000
0000340000
0006876000
0007779200
0048777600
0067788800
0188766850
0677638770
0789897892
3877889776
6784001888
ENDCHAR
STARTCHAR abreve
ENCODING 259
SWIDTH 832 0
DWIDTH 9 0
BBX 9 11 0 -1
BITMAP
0018480000
0002410000
0057875000
0778997700
5778687750
6793039760
6891009860
6777549860
1887559860
0179869860
0001210000
ENDCHAR
STARTCHAR Aogonek
ENCODING 260
SWIDTH 937 0
DWIDTH 10 0
BBX 11 13 0 -4
BITMAP
000577600000
000777840000
003868760000
006677881000
008886676000
057662887000
077989778300
288788887600
667551078810
000661000000
000671000000
000693000000
000110000000
ENDCHAR
STARTCHAR aogonek
ENCODING 261
SWIDTH 832 0
DWIDTH 9 0
BBX 9 12 0 -4
BITMAP
0057875000
0778997700
5778687750
6793039760
6891009860
6777549860
1887559860
017CB69860
0048510000
0066300000
0066600000
0011100000
ENDCHAR
STARTCHAR Cacute
ENCODING 262
SWIDTH 852 0
DWIDTH 9 0
BBX 9 14 0 -1
BITMAP
0000000400
0000047840
0000486100
0000341000
0068889610
0689668770
3887667620
6685002100
6891000000
6684001000
4887667620
0778667870
0068779720
0001552000
ENDCHAR
STARTCHAR cacute
ENCODING 263
SWIDTH 736 0
DWIDTH 8 0
BBX 8 13 0 -1
BITMAP
00000022
00002686
00018730
00002000
00689861
07797885
57876740
67930100
68910000
67876630
18876784
02786883
00035400
ENDCHAR
STARTCHAR Cdotaccent
ENCODING 266
SWIDTH 852 0
DWIDTH 9 0
BBX 9 13 0 -1
BITMAP
0000681000
0000891000
0000441000
0068889610
0689668770
3887667620
6685002100
6891000000
6684001000
4887667620
0778667870
0068779720
0001552000
ENDCHAR
STARTCHAR cdotaccent
ENCODING 267
SWIDTH 736 0
DWIDTH 8 0
BBX 8 12 0 -1
BITMAP
00038400
00049500
00002100
00689861
07797885
57876740
67930100
68910000
67876630
18876784
02786883
00035400
ENDCHAR
STARTCHAR Ccaron
ENCODING 268
SWIDTH 852 0
DWIDTH 9 0
BBX 9 14 0 -1
BITMAP
0005666000
0001784000
0000750000
0000331000
0068889610
0689668770
3887667620
6685002100
6891000000
6684001000
4887667620
0778667870
0068779720
0001552000
ENDCHAR
STARTCHAR ccaron
ENCODING 269
SWIDTH 736 0
DWIDTH 8 0
BBX 8 12 0 -1
BITMAP
00077810
00067600
00038400
00689861
07797885
57876740
67930100
68910000
67876630
18876784
02786883
00035400
ENDCHAR
STARTCHAR Dcaron
ENCODING 270
SWIDTH 886 0
DWIDTH 10 0
BBX 10 13 0 0
BITMAP
0006565000
0002781000
0000740000
0000000000
6788876300
6799997840
6687678880
6693007784
6693006666
6693006784
6687668881
6788898840
6899997400
ENDCHAR
STARTCHAR dcaron
ENCODING 271
SWIDTH 1084 0
DWIDTH 12 0
BBX 12 8 0 0
BITMAP
566666500555
689997770366
669999775266
669304876250
669301986000
668767776000
678889781000
689998610000
ENDCHAR
STARTCHAR Dcroat
ENCODING 272
SWIDTH 888 0
DWIDTH 10 0
BBX 11 9 -1 0
BITMAP
067888763000
067999978400
066876788800
346804077840
346804066660
376874066840
066876688810
067888988400
068999974000
ENDCHAR
STARTCHAR dcroat
ENCODING 273
SWIDTH 833 0
DWIDTH 9 0
BBX 10 8 -1 0
BITMAP
0566666500
0689997770
0669999775
3469044876
3869641986
0668767776
0678889781
0689998610
ENDCHAR
STARTCHAR Emacron
ENCODING 274
SWIDTH 706 0
DWIDTH 8 0
BBX 8 9 0 0
BITMAP
55898882
669A9993
66930000
66986200
66986200
66986200
66930000
669A8883
669A9993
ENDCHAR
STARTCHAR emacron
ENCODING 275
SWIDTH 666 0
DWIDTH 7 0
BBX 7 8 0 0
BITMAP
44676650
669A9980
66953330
66987750
669B9960
66941110
669A8870
669A9980
ENDCHAR
STARTCHAR Ebreve
ENCODING 276
SWIDTH 706 0
DWIDTH 8 0
BBX 8 11 0 0
BITMAP
00566400
00044000
55898882
669A9993
66930000
66986200
66986200
66986200
66930000
669A8883
669A9993
ENDCHAR
STARTCHAR ebreve
ENCODING 277
SWIDTH 666 0
DWIDTH 7 0
BBX 7 10 0 0
BITMAP
00757200
00143000
44676650
669A9980
66953330
66987750
669B9960
66941110
669A8870
669A9980
ENDCHAR
STARTCHAR Edotaccent
ENCODING 278
SWIDTH 706 0
DWIDTH 8 0
BBX 8 13 0 0
BITMAP
00032000
00098000
00065000
00000000
55898882
669A9993
66930000
66986200
66986200
66986200
66930000
669A8883
669A9993
ENDCHAR
STARTCHAR edotaccent
ENCODING 279
SWIDTH 666 0
DWIDTH 7 0
BBX 7 11 0 0
BITMAP
00132000
00296000
00164000
44676650
669A9980
66953330
66987750
669B9960
66941110
669A8870
669A9980
ENDCHAR
STARTCHAR Eogonek
ENCODING 280
SWIDTH 706 0
DWIDTH 8 0
BBX 8 13 0 -4
BITMAP
55898882
669A9993
66930000
66986200
66986200
66986200
66930000
669A8883
669A99D5
00000562
00000662
00000675
00000110
ENDCHAR
STARTCHAR eogonek
ENCODING 281
SWIDTH 666 0
DWIDTH 7 0
BBX 7 12 0 -4
BITMAP
44676650
669A9980
66953330
66987750
669B9960
66941110
669A8870
669A9AD0
00000860
00000950
00000980
00000110
ENDCHAR
STARTCHAR Ecaron
ENCODING 282
SWIDTH 706 0
DWIDTH 8 0
BBX 8 13 0 0
BITMAP
00656500
00378100
00074000
00000000
55898882
669A9993
66930000
66986200
66986200
66986200
66930000
669A8883
669A9993
ENDCHAR
STARTCHAR ecaron
ENCODING 283
SWIDTH 666 0
DWIDTH 7 0
BBX 7 11 0 0
BITMAP
00668200
00577000
00174000
44676650
669A9980
66953330
66987750
669B9960
66941110
669A8870
669A9980
ENDCHAR
STARTCHAR Gbreve
ENCODING 286
SWIDTH 908 0
DWIDTH 10 0
BBX 10 12 0 -1
BITMAP
0004656000
0000781000
0068889610
0689668770
3887667620
6685002100
6891002644
6684003966
4777658966
0777568966
016876A966
0002553000
ENDCHAR
STARTCHAR gbreve
ENCODING 287
SWIDTH 827 0
DWIDTH 9 0
BBX 9 11 0 -1
BITMAP
0008481000
0002620000
0068986100
0779788500
5787674000
6793010000
6891018750
6787579760
1887679760
0278689760
0003540000
ENDCHAR
STARTCHAR Gdotaccent
ENCODING 288
SWIDTH 908 0
DWIDTH 10 0
BBX 10 13 0 -1
BITMAP
0000681000
0000891000
0000441000
0068889610
0689668770
3887667620
6685002100
6891002644
6684003966
4777658966
0777568966
016876A966
0002553000
ENDCHAR
STARTCHAR gdotaccent
ENCODING 289
SWIDTH 827 0
DWIDTH 9 0
BBX 9 12 0 -1
BITMAP
0003840000
0004950000
0000210000
0068986100
0779788500
5787674000
6793010000
6891018750
6787579760
1887679760
0278689760
0003540000
ENDCHAR
STARTCHAR Gcommaaccent
ENCODING 290
SWIDTH 908 0
DWIDTH 10 0
BBX 10 15 0 -5
BITMAP
0000331000
0068889610
0689668770
3887667620
6685002100
6891002644
6684003966
4777658966
0777568966
016876A966
0002773000
0000791000
0000491000
0000780000
0000300000
ENDCHAR
STARTCHAR gcommaaccent
ENCODING 291
SWIDTH 827 0
DWIDTH 9 0
BBX 9 10 0 -1
BITMAP
0000100000
0068986100
0779788500
5787674000
6793010000
6891018750
6787579760
1887679760
0278689760
0003540000
ENDCHAR
STARTCHAR Hcircumflex
ENCODING 292
SWIDTH 901 0
DWIDTH 10 0
BBX 10 13 0 0
BITMAP
0000A60000
0004692000
0004454000
0000000000
5583004655
6693005766
6693005766
6698669766
6698669766
6698669766
6693005766
6693005766
6693005766
ENDCHAR
STARTCHAR hcircumflex
ENCODING 293
SWIDTH 830 0
DWIDTH 9 0
BBX 9 11 0 0
BITMAP
0003850000
0006770000
0006561000
4462017540
6693019760
6693029760
669A9A9760
6699889760
6693019760
6693019760
6693019760
ENDCHAR
STARTCHAR Hbar
ENCODING 294
SWIDTH 901 0
DWIDTH 10 0
BBX 12 9 -1 0
BITMAP
055830046550
246805527631
276865577681
066886697660
066886697660
066886697660
066830057660
066830057660
066830057660
ENDCHAR
STARTCHAR hbar
ENCODING 295
SWIDTH 830 0
DWIDTH 9 0
BBX 11 8 -1 0
BITMAP
044620175400
156813197510
176864497610
0668A9A97600
066898897600
066830197600
066830197600
066830197600
ENDCHAR
STARTCHAR Itilde
ENCODING 296
SWIDTH 338 0
DWIDTH 4 0
BBX 8 13 -2 0
BITMAP
00222010
28999781
55466650
00000000
00558300
00669300
00669300
00669300
00669300
00669300
00669300
00669300
00669300
ENDCHAR
STARTCHAR itilde
ENCODING 297
SWIDTH 337 0
DWIDTH 4 0
BBX 8 11 -2 0
BITMAP
00222010
28999781
55466650
00446200
00669300
00669300
00669300
00669300
00669300
00669300
00669300
ENDCHAR
STARTCHAR Imacron
ENCODING 298
SWIDTH 338 0
DWIDTH 4 0
BBX 4 9 0 0
BITMAP
5583
6693
6693
6693
6693
6693
6693
6693
6693
ENDCHAR
STARTCHAR imacron
ENCODING 299
SWIDTH 337 0
DWIDTH 4 0
BBX 4 8 0 0
BITMAP
4462
6693
6693
6693
6693
6693
6693
6693
ENDCHAR
STARTCHAR Ibreve
ENCODING 300
SWIDTH 338 0
DWIDTH 4 0
BBX 4 11 0 0
BITMAP
6564
0430
5583
6693
6693
6693
6693
6693
6693
6693
6693
ENDCHAR
STARTCHAR ibreve
ENCODING 301
SWIDTH 337 0
DWIDTH 4 0
BBX 4 10 0 0
BITMAP
6564
0430
4462
6693
6693
6693
6693
6693
6693
6693
ENDCHAR
STARTCHAR Iogonek
ENCODING 302
SWIDTH 338 0
DWIDTH 4 0
BBX 4 13 0 -4
BITMAP
5583
6693
6693
6693
6693
6693
6693
6693
66D4
0661
0671
0693
0110
ENDCHAR
STARTCHAR iogonek
ENCODING 303
SWIDTH 337 0
DWIDTH 4 0
BBX 4 12 0 -4
BITMAP
4462
6693
6693
6693
6693
6693
6693
66D4
0661
0671
0683
0110
ENDCHAR
STARTCHAR Idotaccent
ENCODING 304
SWIDTH 338 0
DWIDTH 4 0
BBX 4 12 0 0
BITMAP
1860
1980
0000
5583
6693
6693
6693
6693
6693
6693
6693
6693
ENDCHAR
STARTCHAR dotlessi
ENCODING 305
SWIDTH 337 0
DWIDTH 4 0
BBX 4 8 0 0
BITMAP
4462
6693
6693
6693
6693
6693
6693
6693
ENDCHAR
STARTCHAR IJ
ENCODING 306
SWIDTH 774 0
DWIDTH 9 0
BBX 8 10 0 -1
BITMAP
55830578
66930689
66930689
66930689
66930689
66930689
66935799
66937786
66936971
00006400
ENDCHAR
STARTCHAR ij
ENCODING 307
SWIDTH 729 0
DWIDTH 8 0
BBX 8 10 0 -2
BITMAP
44622744
66932966
66932966
66932966
66932966
66932966
66937776
66937881
0000A720
00001000
ENDCHAR
STARTCHAR Jcircumflex
ENCODING 308
SWIDTH 434 0
DWIDTH 5 0
BBX 5 14 0 -1
BITMAP
00A600
046920
044540
000000
055640
066740
066740
066740
066740
066740
477930
578800
488300
451000
ENDCHAR
STARTCHAR jcircumflex
ENCODING 309
SWIDTH 393 0
DWIDTH 4 0
BBX 4 13 0 -2
BITMAP
0474
0686
1656
0575
0797
0797
0797
0797
0797
5887
5883
7840
1000
ENDCHAR
STARTCHAR Kcommaaccent
ENCODING 310
SWIDTH 815 0
DWIDTH 9 0
BBX 9 14 0 -5
BITMAP
5583066650
6693188810
6693677600
6694888100
6699767000
6695888100
6693677600
6693188810
6693067760
0001110000
0005660000
0002660000
0003740000
0001200000
ENDCHAR
STARTCHAR kcommaaccent
ENCODING 311
SWIDTH 801 0
DWIDTH 9 0
BBX 9 13 0 -5
BITMAP
4462055540
6693288710
6693677500
6690887000
6692776000
6693788300
6693487700
6693077840
0001110000
0006660000
0002660000
0003740000
0002200000
ENDCHAR
STARTCHAR kgreenlandic
ENCODING 312
SWIDTH 801 0
DWIDTH 9 0
BBX 9 8 0 0
BITMAP
4462055540
6693288710
6693677500
6690887000
6692776000
6693788300
6693487700
6693077840
ENDCHAR
STARTCHAR Lacute
ENCODING 313
SWIDTH 604 0
DWIDTH 7 0
BBX 7 13 0 0
BITMAP
00000210
00026850
00287200
00010000
55830000
66930000
66930000
66930000
66930000
66930000
66930000
669A8820
669A9930
ENDCHAR
STARTCHAR lacute
ENCODING 314
SWIDTH 583 0
DWIDTH 6 0
BBX 7 12 0 0
BITMAP
00003000
00577200
07750000
01000000
44620000
66930000
66930000
66930000
66930000
66930000
669A8800
669A9910
ENDCHAR
STARTCHAR Lcommaaccent
ENCODING 315
SWIDTH 604 0
DWIDTH 7 0
BBX 7 14 0 -5
BITMAP
55830000
66930000
66930000
66930000
66930000
66930000
66930000
669A8820
669A9930
00111000
00666000
00265000
00582000
00210000
ENDCHAR
STARTCHAR lcommaaccent
ENCODING 316
SWIDTH 583 0
DWIDTH 6 0
BBX 7 13 0 -5
BITMAP
44620000
66930000
66930000
66930000
66930000
66930000
669A8800
669A9910
00121000
00684000
00284000
00681000
00210000
ENDCHAR
STARTCHAR Lcaron
ENCODING 317
SWIDTH 856 0
DWIDTH 9 0
BBX 10 9 0 0
BITMAP
5583000791
6693000591
6693000680
6693000530
6693000000
6693000000
6693000000
669A882000
669A993000
ENDCHAR
STARTCHAR lcaron
ENCODING 318
SWIDTH 584 0
DWIDTH 6 0
BBX 7 8 0 0
BITMAP
44628800
66936900
66936700
66936200
66930000
66930000
669A8800
669A9910
ENDCHAR
STARTCHAR Ldot
ENCODING 319
SWIDTH 604 0
DWIDTH 7 0
BBX 7 9 0 0
BITMAP
55830000
66930000
66930000
66933200
66949700
66946500
66930000
669A8820
669A9930
ENDCHAR
STARTCHAR ldot
ENCODING 320
SWIDTH 582 0
DWIDTH 6 0
BBX 7 8 0 0
BITMAP
44620000
66933200
66949700
66946500
66930000
66930000
669A8800
669A9910
ENDCHAR
STARTCHAR Lslash
ENCODING 321
SWIDTH 604 0
DWIDTH 7 0
BBX 8 9 -1 0
BITMAP
05583000
06683000
06680700
25681100
74686200
47683000
06683000
0668A883
0668A993
ENDCHAR
STARTCHAR lslash
ENCODING 322
SWIDTH 581 0
DWIDTH 6 0
BBX 8 8 -1 0
BITMAP
04462000
06683300
06681800
44685600
45683000
47683000
0668A880
0668A991
ENDCHAR
STARTCHAR Nacute
ENCODING 323
SWIDTH 877 0
DWIDTH 10 0
BBX 10 13 0 0
BITMAP
0000000300
0000168720
0000775000
0000100000
6777105682
6777606692
6688826692
6698776692
6678787692
6696888592
6693677792
6693178872
6693057792
ENDCHAR
STARTCHAR nacute
ENCODING 324
SWIDTH 787 0
DWIDTH 9 0
BBX 9 12 0 0
BITMAP
0000003100
0000378500
0003862000
0000100000
5655004720
6778506920
6788816920
6687766920
6678885920
6666777820
6660788820
6660488920
ENDCHAR
STARTCHAR Ncommaaccent
ENCODING 325
SWIDTH 877 0
DWIDTH 10 0
BBX 10 14 0 -5
BITMAP
6777105682
6777606692
6688826692
6698776692
6678787692
6696888592
6693677792
6693178872
6693057792
0000210000
0002960000
0001760000
0001760000
0001300000
ENDCHAR
STARTCHAR ncommaaccent
ENCODING 326
SWIDTH 787 0
DWIDTH 9 0
BBX 9 13 0 -5
BITMAP
5655004720
6778506920
6788816920
6687766920
6678885920
6666777820
6660788820
6660488920
0001210000
0006740000
0002740000
0005810000
0002100000
ENDCHAR
STARTCHAR Ncaron
ENCODING 327
SWIDTH 877 0
DWIDTH 10 0
BBX 10 13 0 0
BITMAP
0006674000
0004780000
0000740000
0000000000
6777105682
6777606692
6688826692
6698776692
6678787692
6696888592
6693677792
6693178872
6693057792
ENDCHAR
STARTCHAR ncaron
ENCODING 328
SWIDTH 787 0
DWIDTH 9 0
BBX 9 11 0 0
BITMAP
0028660000
0007760000
0005610000
5655004720
6778506920
6788816920
6687766920
6678885920
6666777820
6660788820
6660488920
ENDCHAR
STARTCHAR Eng
ENCODING 330
SWIDTH 874 0
DWIDTH 10 0
BBX 10 13 0 -4
BITMAP
6777105681
6777706792
6688846792
6688786792
6678777792
6685887792
6683676792
6683076792
6683037792
0000047890
0000077870
0000068820
0000065000
ENDCHAR
STARTCHAR eng
ENCODING 331
SWIDTH 691 0
DWIDTH 8 0
BBX 8 11 0 -3
BITMAP
56550571
67785791
67887791
66877791
66787791
66667791
66607791
66604791
00001891
00006870
00006720
ENDCHAR
STARTCHAR Omacron
ENCODING 332
SWIDTH 933 0
DWIDTH 10 0
BBX 10 11 0 -1
BITMAP
0000341000
0068889710
0689668881
3887667886
6685002887
6891000698
6684001897
4887667886
0778668881
0068768710
0001553000
ENDCHAR
STARTCHAR omacron
ENCODING 333
SWIDTH 833 0
DWIDTH 9 0
BBX 9 10 0 -1
BITMAP
0000100000
0068986100
0779797800
5787678750
6793029960
6891009960
6787678760
1887678810
0278787300
0003540000
ENDCHAR
STARTCHAR Obreve
ENCODING 334
SWIDTH 933 0
DWIDTH 10 0
BBX 10 12 0 -1
BITMAP
0004656000
0000781000
0068889710
0689668881
3887667886
6685002887
6891000698
6684001897
4887667886
0778668881
0068768710
0001553000
ENDCHAR
STARTCHAR obreve
ENCODING 335
SWIDTH 833 0
DWIDTH 9 0
BBX 9 11 0 -1
BITMAP
0008481000
0002620000
0068986100
0779797800
5787678750
6793029960
6891009960
6787678760
1887678810
0278787300
0003540000
ENDCHAR
STARTCHAR Ohungarumlaut
ENCODING 336
SWIDTH 933 0
DWIDTH 10 0
BBX 11 14 0 -1
BITMAP
000004000400
000478447840
004861486100
000134110000
006888971000
068966888100
388766788600
668500288700
689100069800
668400189700
488766788600
077866888100
006876871000
000155300000
ENDCHAR
STARTCHAR ohungarumlaut
ENCODING 337
SWIDTH 833 0
DWIDTH 9 0
BBX 10 13 0 -1
BITMAP
0000220012
0026862686
0187318730
0010101000
0068986100
0779797800
5787678750
6793029960
6891009960
6787678760
1887678810
0278787300
0003540000
ENDCHAR
STARTCHAR OE
ENCODING 338
SWIDTH 1317 0
DWIDTH 15 0
BBX 15 11 0 -1
BITMAP
0000331000000000
0068899628777710
0689668639999910
3887667639000000
6685002639660000
6891000639660000
6684001639660000
4887667639000000
0778667739888810
0068779639999910
0001552000000000
ENDCHAR
STARTCHAR oe
ENCODING 339
SWIDTH 1174 0
DWIDTH 13 0
BBX 13 10 0 -1
BITMAP
00001000000000
00689937666630
07715139899940
57536479733310
65230229777720
65010039899920
67776769611100
18666609888840
02787839899940
00035400000000
ENDCHAR
STARTCHAR Racute
ENCODING 340
SWIDTH 843 0
DWIDTH 9 0
BBX 9 13 0 0
BITMAP
0000040000
0004784000
0048610000
0001000000
6788876400
6799998750
6687668870
6695337980
6698887870
6696667820
66966BA600
6693079800
6693067840
ENDCHAR
STARTCHAR Rcommaaccent
ENCODING 342
SWIDTH 843 0
DWIDTH 9 0
BBX 9 14 0 -5
BITMAP
6788876400
6799998750
6687668870
6695337980
6698887870
6696667820
66966BA600
6693079800
6693067840
0001110000
0006660000
0002660000
0004730000
0002100000
ENDCHAR
STARTCHAR rcommaaccent
ENCODING 343
SWIDTH 831 0
DWIDTH 9 0
BBX 9 13 0 -5
BITMAP
5666666200
6899997730
6699998860
6696668860
6696667760
6698889800
66957A8600
6693089700
0001210000
0006840000
0002830000
0006810000
0002100000
ENDCHAR
STARTCHAR Rcaron
ENCODING 344
SWIDTH 843 0
DWIDTH 9 0
BBX 9 13 0 0
BITMAP
0566600000
0178400000
0075000000
0000000000
6788876400
6799998750
6687668870
6695337980
6698887870
6696667820
66966BA600
6693079800
6693067840
ENDCHAR
STARTCHAR rcaron
ENCODING 345
SWIDTH 831 0
DWIDTH 9 0
BBX 9 11 0 0
BITMAP
0006682000
0006770000
0001640000
5666666200
6899997730
6699998860
6696668860
6696667760
6698889800
66957A8600
6693089700
ENDCHAR
STARTCHAR Sacute
ENCODING 346
SWIDTH 682 0
DWIDTH 8 0
BBX 8 14 0 -1
BITMAP
00000030
00016872
00077500
00143100
06988861
57766840
67866200
66865500
37898760
04677880
00557792
07666880
47868830
01454000
ENDCHAR
STARTCHAR sacute
ENCODING 347
SWIDTH 683 0
DWIDTH 8 0
BBX 8 13 0 -1
BITMAP
00000030
00016872
00077500
00010000
04687640
47899861
67701400
67876610
06999780
01012792
17867880
36999730
00121000
ENDCHAR
STARTCHAR Scircumflex
ENCODING 348
SWIDTH 682 0
DWIDTH 8 0
BBX 8 14 0 -1
BITMAP
00196000
00678000
00556300
00143100
06988861
57766840
67866200
66865500
37898760
04677880
00557792
07666880
47868830
01454000
ENDCHAR
STARTCHAR scircumflex
ENCODING 349
SWIDTH 683 0
DWIDTH 8 0
BBX 8 12 0 -1
BITMAP
00196000
00678000
00556300
04687640
47899861
67701400
67876610
06999780
01012792
17867880
36999730
00121000
ENDCHAR
STARTCHAR Scedilla
ENCODING 350
SWIDTH 682 0
DWIDTH 8 0
BBX 8 15 0 -5
BITMAP
00143100
06988861
57766840
67866200
66865500
37898760
04677880
00557792
07666880
47868830
01486000
00885000
02920000
01893000
00021000
ENDCHAR
STARTCHAR scedilla
ENCODING 351
SWIDTH 683 0
DWIDTH 8 0
BBX 8 12 0 -4
BITMAP
04687640
47899861
67701400
67876610
06999780
01012792
17867880
369CB730
009A6000
02920000
01893000
00021000
ENDCHAR
STARTCHAR Scaron
ENCODING 352
SWIDTH 682 0
DWIDTH 8 0
BBX 8 14 0 -1
BITMAP
00667400
00478000
00074000
00143100
06988861
57766840
67866200
66865500
37898760
04677880
00557792
07666880
47868830
01454000
ENDCHAR
STARTCHAR scaron
ENCODING 353
SWIDTH 683 0
DWIDTH 8 0
BBX 8 12 0 -1
BITMAP
00667400
00478000
00074000
04687640
47899861
67701400
67876610
06999780
01012792
17867880
36999730
00121000
ENDCHAR
STARTCHAR Tcommaaccent
ENCODING 354
SWIDTH 591 0
DWIDTH 7 0
BBX 7 13 0 -4
BITMAP
58888810
69999910
02A76000
02966000
02966000
02966000
02966000
02966000
02C96000
05880000
06710000
05870000
00120000
ENDCHAR
STARTCHAR tcommaaccent
ENCODING 355
SWIDTH 588 0
DWIDTH 6 0
BBX 7 12 0 -4
BITMAP
46666610
69999910
24877300
02966000
02966000
02966000
02966000
02B96000
05880000
06710000
05870000
00120000
ENDCHAR
STARTCHAR Tcaron
ENCODING 356
SWIDTH 591 0
DWIDTH 7 0
BBX 7 13 0 0
BITMAP
03766000
00775000
00660000
00000000
58888810
69999910
02A76000
02966000
02966000
02966000
02966000
02966000
02966000
ENDCHAR
STARTCHAR tcaron
ENCODING 357
SWIDTH 842 0
DWIDTH 9 0
BBX 9 8 0 0
BITMAP
4666661970
6999991770
2487731770
0296600620
0296600000
0296600000
0296600000
0296600000
ENDCHAR
STARTCHAR Tbar
ENCODING 358
SWIDTH 591 0
DWIDTH 7 0
BBX 7 9 0 0
BITMAP
58888810
69999910
02A76000
42965610
42965610
46967610
02966000
02966000
02966000
ENDCHAR
STARTCHAR tbar
ENCODING 359
SWIDTH 588 0
DWIDTH 6 0
BBX 7 8 0 0
BITMAP
46666610
69999910
24877300
02966000
64964910
24967300
02966000
02966000
ENDCHAR
STARTCHAR Utilde
ENCODING 360
SWIDTH 905 0
DWIDTH 10 0
BBX 10 14 0 -1
BITMAP
0002221100
0189997830
0463666600
0000000000
5582003755
6692004866
6692004866
6692004866
6692004866
6674005766
4877667783
0877667770
0178778700
0002552000
ENDCHAR
STARTCHAR utilde
ENCODING 361
SWIDTH 795 0
DWIDTH 9 0
BBX 9 12 0 -1
BITMAP
0012211100
0689987600
0656666200
4472044630
6692066840
6692066840
6692066840
6692066840
6677677920
1797677600
0378686100
0004530000
ENDCHAR
STARTCHAR Umacron
ENCODING 362
SWIDTH 905 0
DWIDTH 10 0
BBX 10 10 0 -1
BITMAP
5582003755
6692004866
6692004866
6692004866
6692004866
6674005766
4877667783
0877667770
0178778700
0002552000
ENDCHAR
STARTCHAR umacron
ENCODING 363
SWIDTH 795 0
DWIDTH 9 0
BBX 9 9 0 -1
BITMAP
4472044630
6692066840
6692066840
6692066840
6692066840
6677677920
1797677600
0378686100
0004530000
ENDCHAR
STARTCHAR Ubreve
ENCODING 364
SWIDTH 905 0
DWIDTH 10 0
BBX 10 12 0 -1
BITMAP
0005664000
0000440000
5582003755
6692004866
6692004866
6692004866
6692004866
6674005766
4877667783
0877667770
0178778700
0002552000
ENDCHAR
STARTCHAR ubreve
ENCODING 365
SWIDTH 795 0
DWIDTH 9 0
BBX 9 11 0 -1
BITMAP
0027480000
0002410000
4472044630
6692066840
6692066840
6692066840
6692066840
6677677920
1797677600
0378686100
0004530000
ENDCHAR
STARTCHAR Uring
ENCODING 366
SWIDTH 905 0
DWIDTH 10 0
BBX 10 14 0 -1
BITMAP
0000430000
0004663000
0004664000
0000440000
5582003755
6692004866
6692004866
6692004866
6692004866
6674005766
4877667783
0877667770
0178778700
0002552000
ENDCHAR
STARTCHAR uring
ENCODING 367
SWIDTH 795 0
DWIDTH 9 0
BBX 9 13 0 -1
BITMAP
0002410000
0008560000
0008560000
0003410000
4472044630
6692066840
6692066840
6692066840
6692066840
6677677920
1797677600
0378686100
0004530000
ENDCHAR
STARTCHAR Uhungarumlaut
ENCODING 368
SWIDTH 905 0
DWIDTH 10 0
BBX 11 14 0 -1
BITMAP
000003000400
000578357830
006750676000
000000000000
558200375500
669200486600
669200486600
669200486600
669200486600
667400576600
487766778300
087766777000
017877870000
000255200000
ENDCHAR
STARTCHAR uhungarumlaut
ENCODING 369
SWIDTH 795 0
DWIDTH 9 0
BBX 10 13 0 -1
BITMAP
0000310021
0036853685
0386228620
0010001000
4472044630
6692066840
6692066840
6692066840
6692066840
6677677920
1797677600
0378686100
0004530000
ENDCHAR
STARTCHAR Uogonek
ENCODING 370
SWIDTH 905 0
DWIDTH 10 0
BBX 10 13 0 -4
BITMAP
5582003755
6692004866
6692004866
6692004866
6692004866
6674005766
4877667783
0877667770
0179B88700
0008B72000
0006720000
0006840000
0001100000
ENDCHAR
STARTCHAR uogonek
ENCODING 371
SWIDTH 794 0
DWIDTH 9 0
BBX 9 12 0 -4
BITMAP
4472044630
6692066840
6692066840
6692066840
6692066840
6677677920
1797677600
037AA86100
003C930000
0057300000
0057600000
0001100000
ENDCHAR
STARTCHAR Ycircumflex
ENCODING 374
SWIDTH 789 0
DWIDTH 9 0
BBX 9 13 0 0
BITMAP
0006820000
0007760000
0026550000
0000000000
5682056730
2876078700
0678677400
0386787000
0068775000
0048880000
0009860000
0009860000
0009860000
ENDCHAR
STARTCHAR ycircumflex
ENCODING 375
SWIDTH 733 0
DWIDTH 8 0
BBX 8 11 0 0
BITMAP
00097000
00268300
00444400
45610665
38765774
06877870
03877750
00688700
00486600
00486600
00486600
ENDCHAR
STARTCHAR Ydieresis
ENCODING 376
SWIDTH 789 0
DWIDTH 9 0
BBX 9 12 0 0
BITMAP
0122033000
0465087000
0000000000
5682056730
2876078700
0678677400
0386787000
0068775000
0048880000
0009860000
0009860000
0009860000
ENDCHAR
STARTCHAR Zacute
ENCODING 377
SWIDTH 854 0
DWIDTH 9 0
BBX 9 13 0 0
BITMAP
0000001300
0000168710
0001874000
0000100000
48888887A0
5999977870
4666368870
0004778860
0168877400
3778861000
4877456650
4875888880
6A89999990
ENDCHAR
STARTCHAR zacute
ENCODING 378
SWIDTH 714 0
DWIDTH 8 0
BBX 8 12 0 0
BITMAP
00000040
00005783
00067610
00000000
36666552
59988882
23387760
00587710
01878400
07777000
48886884
57889994
ENDCHAR
STARTCHAR Zdotaccent
ENCODING 379
SWIDTH 854 0
DWIDTH 9 0
BBX 9 12 0 0
BITMAP
0002850000
0003960000
0000000000
48888887A0
5999977870
4666368870
0004778860
0168877400
3778861000
4877456650
4875888880
6A89999990
ENDCHAR
STARTCHAR zdotaccent
ENCODING 380
SWIDTH 714 0
DWIDTH 8 0
BBX 8 11 0 0
BITMAP
00087000
00099000
00000000
36666552
59988882
23387760
00587710
01878400
07777000
48886884
57889994
ENDCHAR
STARTCHAR Zcaron
ENCODING 381
SWIDTH 854 0
DWIDTH 9 0
BBX 9 13 0 0
BITMAP
0006682000
0006770000
0001740000
0000000000
48888887A0
5999977870
4666368870
0004778860
0168877400
3778861000
4877456650
4875888880
6A89999990
ENDCHAR
STARTCHAR zcaron
ENCODING 382
SWIDTH 714 0
DWIDTH 8 0
BBX 8 11 0 0
BITMAP
00556500
00279100
00075000
36666552
59988882
23387760
00587710
01878400
07777000
48886884
57889994
ENDCHAR
STARTCHAR florin
ENCODING 402
SWIDTH 388 0
DWIDTH 4 0
BBX 4 11 0 -1
BITMAP
0023
0497
0785
2793
5797
3795
0791
0791
1791
6780
4620
ENDCHAR
STARTCHAR uni01C4
ENCODING 452
SWIDTH 1740 0
DWIDTH 19 0
BBX 19 13 0 0
BITMAP
00000000000018770000
00000000000006760000
00000000000003620000
00000000000000000000
67888763006888887870
67999978407999967850
66876788805666377850
66930077840005877840
66930066660277887200
66930067845877850000
66876688816887366640
67888988406875888860
68999974009899999960
ENDCHAR
STARTCHAR uni01C5
ENCODING 453
SWIDTH 1601 0
DWIDTH 18 0
BBX 18 11 0 0
BITMAP
000000000000667300
000000000000577000
678887630000174000
679999784056666552
668767888079998771
669300778423488840
669300666600777700
669300678403888200
668766888107786000
678889884067786882
689999740078889992
ENDCHAR
STARTCHAR Scommaaccent
ENCODING 536
SWIDTH 682 0
DWIDTH 8 0
BBX 8 15 0 -5
BITMAP
00143100
06988861
57766840
67866200
66865500
37898760
04677880
00557792
07666880
47868830
01575000
00476000
00166000
00275000
00120000
ENDCHAR
STARTCHAR scommaaccent
ENCODING 537
SWIDTH 683 0
DWIDTH 8 0
BBX 8 13 0 -5
BITMAP
04687640
47899861
67701400
67876610
06999780
01012792
17867880
36999730
00242000
00476000
00166000
00275000
00120000
ENDCHAR
STARTCHAR uni021A
ENCODING 538
SWIDTH 591 0
DWIDTH 7 0
BBX 7 14 0 -5
BITMAP
58888810
69999910
02A76000
02966000
02966000
02966000
02966000
02966000
02966000
00121000
00683000
00293000
00681000
00310000
ENDCHAR
STARTCHAR uni021B
ENCODING 539
SWIDTH 588 0
DWIDTH 6 0
BBX 7 13 0 -5
BITMAP
46666610
69999910
24877300
02966000
02966000
02966000
02966000
02966000
00121000
00683000
00293000
00681000
00310000
ENDCHAR
STARTCHAR uni0237
ENCODING 567
SWIDTH 393 0
DWIDTH 4 0
BBX 4 10 0 -2
BITMAP
0575
0797
0797
0797
0797
0797
5887
5883
7840
1000
ENDCHAR
STARTCHAR circumflex
ENCODING 710
SWIDTH 376 0
DWIDTH 4 0
BBX 4 3 0 8
BITMAP
0970
2684
4544
ENDCHAR
STARTCHAR caron
ENCODING 711
SWIDTH 362 0
DWIDTH 4 0
BBX 4 3 0 8
BITMAP
5565
2792
0750
ENDCHAR
STARTCHAR breve
ENCODING 728
SWIDTH 360 0
DWIDTH 4 0
BBX 4 2 0 8
BITMAP
5664
0440
ENDCHAR
STARTCHAR dotaccent
ENCODING 729
SWIDTH 255 0
DWIDTH 3 0
BBX 3 2 0 7
BITMAP
4830
5930
ENDCHAR
STARTCHAR ring
ENCODING 730
SWIDTH 330 0
DWIDTH 4 0
BBX 4 4 0 8
BITMAP
0430
5672
5672
0430
ENDCHAR
STARTCHAR ogonek
ENCODING 731
SWIDTH 250 0
DWIDTH 3 0
BBX 3 5 0 -4
BITMAP
0420
5620
6620
6750
1100
ENDCHAR
STARTCHAR tilde
ENCODING 732
SWIDTH 665 0
DWIDTH 7 0
BBX 7 3 0 6
BITMAP
01222010
48999870
55466640
ENDCHAR
STARTCHAR hungarumlaut
ENCODING 733
SWIDTH 837 0
DWIDTH 9 0
BBX 9 4 0 7
BITMAP
0003100310
0378537850
3862386200
0100010000
ENDCHAR
STARTCHAR uni0307
ENCODING 775
SWIDTH 260 0
DWIDTH 3 0
BBX 3 3 0 4
BITMAP
1310
5930
3620
ENDCHAR
STARTCHAR uni030F
ENCODING 783
SWIDTH 554 0
DWIDTH 6 0
BBX 6 4 0 8
BITMAP
550650
292670
076292
056065
ENDCHAR
STARTCHAR uni0311
ENCODING 785
SWIDTH 375 0
DWIDTH 4 0
BBX 4 2 0 8
BITMAP
2783
2222
ENDCHAR
STARTCHAR uni0326
ENCODING 806
SWIDTH 274 0
DWIDTH 3 0
BBX 3 5 0 -5
BITMAP
1110
6660
2660
4730
2200
ENDCHAR
STARTCHAR Omega
ENCODING 937
SWIDTH 92 0
DWIDTH 1 0
BBX 1 1 0 0
BITMAP
00
ENDCHAR
STARTCHAR uni00B5.dup2
ENCODING 956
SWIDTH 802 0
DWIDTH 9 0
BBX 9 10 0 -2
BITMAP
4462045440
6683057660
6683057660
6683057660
6683056650
6686577830
6687678700
6687687200
6686630000
1110000000
ENDCHAR
STARTCHAR pi
ENCODING 960
SWIDTH 92 0
DWIDTH 1 0
BBX 1 1 0 0
BITMAP
00
ENDCHAR
STARTCHAR endash
ENCODING 8211
SWIDTH 473 0
DWIDTH 5 0
BBX 5 3 0 3
BITMAP
366640
366640
366640
ENDCHAR
STARTCHAR emdash
ENCODING 8212
SWIDTH 615 0
DWIDTH 7 0
BBX 7 3 0 3
BITMAP
36666620
36666620
36666620
ENDCHAR
STARTCHAR quoteleft
ENCODING 8216
SWIDTH 254 0
DWIDTH 3 0
BBX 3 4 0 5
BITMAP
2730
6720
6650
3430
ENDCHAR
STARTCHAR quoteright
ENCODING 8217
SWIDTH 251 0
DWIDTH 3 0
BBX 3 4 0 5
BITMAP
5550
4660
3640
3500
ENDCHAR
STARTCHAR quotesinglbase
ENCODING 8218
SWIDTH 252 0
DWIDTH 3 0
BBX 3 4 0 -2
BITMAP
5650
4650
3630
3500
ENDCHAR
STARTCHAR quotedblleft
ENCODING 8220
SWIDTH 535 0
DWIDTH 6 0
BBX 6 4 0 5
BITMAP
273173
672662
665666
343333
ENDCHAR
STARTCHAR quotedblright
ENCODING 8221
SWIDTH 532 0
DWIDTH 6 0
BBX 6 4 0 5
BITMAP
555555
466466
364365
350350
ENDCHAR
STARTCHAR quotedblbase
ENCODING 8222
SWIDTH 533 0
DWIDTH 6 0
BBX 6 4 0 -2
BITMAP
565555
465466
363365
350350
ENDCHAR
STARTCHAR dagger
ENCODING 8224
SWIDTH 636 0
DWIDTH 7 0
BBX 7 9 0 0
BITMAP
00687000
11798110
69899960
57899750
00698000
00698000
00698000
00698000
00698000
ENDCHAR
STARTCHAR daggerdbl
ENCODING 8225
SWIDTH 648 0
DWIDTH 7 0
BBX 7 9 0 0
BITMAP
00588000
23789320
59889970
36889640
00689000
36889640
47889750
35789540
00689000
ENDCHAR
STARTCHAR bullet
ENCODING 8226
SWIDTH 501 0
DWIDTH 6 0
BBX 6 6 0 1
BITMAP
003200
189950
670491
660191
386770
026500
ENDCHAR
STARTCHAR ellipsis
ENCODING 8230
SWIDTH 676 0
DWIDTH 7 0
BBX 7 2 0 0
BITMAP
58586880
59696990
ENDCHAR
STARTCHAR perthousand
ENCODING 8240
SWIDTH 447 0
DWIDTH 5 0
BBX 5 10 0 -1
BITMAP
005650
006750
008910
029700
066600
067500
089100
297000
666000
675000
ENDCHAR
STARTCHAR guilsinglleft
ENCODING 8249
SWIDTH 465 0
DWIDTH 5 0
BBX 5 6 0 1
BITMAP
000440
267840
579740
577640
167840
000340
ENDCHAR
STARTCHAR guilsinglright
ENCODING 8250
SWIDTH 465 0
DWIDTH 5 0
BBX 5 6 0 1
BITMAP
350000
478620
379760
367760
387620
340000
ENDCHAR
STARTCHAR fraction
ENCODING 8260
SWIDTH 447 0
DWIDTH 5 0
BBX 5 10 0 -1
BITMAP
005650
006750
008910
029700
066600
067500
089100
297000
666000
675000
ENDCHAR
STARTCHAR uni2074
ENCODING 8308
SWIDTH 528 0
DWIDTH 6 0
BBX 6 8 0 1
BITMAP
017720
067700
188410
577470
477773
699995
111471
000120
ENDCHAR
STARTCHAR Euro
ENCODING 8364
SWIDTH 781 0
DWIDTH 9 0
BBX 9 11 0 -1
BITMAP
0000143100
0017988920
0087866700
0577766300
2788542000
2896342000
3788652000
0677665300
0087766500
0017977920
0000255300
ENDCHAR
STARTCHAR trademark
ENCODING 8482
SWIDTH 1503 0
DWIDTH 17 0
BBX 17 7 0 2
BITMAP
588888297400057910
699999298700078910
006930187750577810
006830196871786910
006830197778777910
006830197388738910
004620165055705700
ENDCHAR
STARTCHAR partialdiff
ENCODING 8706
SWIDTH 108 0
DWIDTH 1 0
BBX 1 1 0 0
BITMAP
00
ENDCHAR
STARTCHAR uni2206
ENCODING 8710
SWIDTH 108 0
DWIDTH 1 0
BBX 1 1 0 0
BITMAP
00
ENDCHAR
STARTCHAR product
ENCODING 8719
SWIDTH 521 0
DWIDTH 6 0
BBX 6 8 0 0
BITMAP
036610
067750
187870
676783
666684
288780
068760
057920
ENDCHAR
STARTCHAR summation
ENCODING 8721
SWIDTH 108 0
DWIDTH 1 0
BBX 1 1 0 0
BITMAP
00
ENDCHAR
STARTCHAR minus
ENCODING 8722
SWIDTH 555 0
DWIDTH 6 0
BBX 6 3 0 3
BITMAP
366664
599996
122221
ENDCHAR
STARTCHAR radical
ENCODING 8730
SWIDTH 108 0
DWIDTH 1 0
BBX 1 1 0 0
BITMAP
00
ENDCHAR
STARTCHAR infinity
ENCODING 8734
SWIDTH 108 0
DWIDTH 1 0
BBX 1 1 0 0
BITMAP
00
ENDCHAR
STARTCHAR integral
ENCODING 8747
SWIDTH 362 0
DWIDTH 4 0
BBX 4 11 0 -1
BITMAP
0023
0596
0884
0990
0990
0990
0990
0990
2980
7770
4610
ENDCHAR
STARTCHAR approxequal
ENCODING 8776
SWIDTH 665 0
DWIDTH 7 0
BBX 7 6 0 3
BITMAP
01222010
48999870
55466640
01222010
48999870
55466640
ENDCHAR
STARTCHAR notequal
ENCODING 8800
SWIDTH 473 0
DWIDTH 5 0
BBX 5 10 0 -1
BITMAP
005650
006750
36DF60
39FD50
3BCB40
3CDB40
3DF740
5FD640
666000
675000
ENDCHAR
STARTCHAR lessequal
ENCODING 8804
SWIDTH 108 0
DWIDTH 1 0
BBX 1 1 0 0
BITMAP
00
ENDCHAR
STARTCHAR greaterequal
ENCODING 8805
SWIDTH 108 0
DWIDTH 1 0
BBX 1 1 0 0
BITMAP
00
ENDCHAR
STARTCHAR lozenge
ENCODING 9674
SWIDTH 521 0
DWIDTH 6 0
BBX 6 8 0 0
BITMAP
036610
067750
187870
676783
666684
288780
068760
057920
ENDCHAR
STARTCHAR uniF8FF
ENCODING 63743
SWIDTH 108 0
DWIDTH 1 0
BBX 1 1 0 0
BITMAP
00
ENDCHAR
STARTCHAR uniFB01
ENCODING 64257
SWIDTH 962 0
DWIDTH 11 0
BBX 11 8 0 0
BITMAP
446766345710
669A99467910
669533267910
669866167910
669977267910
669755167910
669300067910
669300067910
ENDCHAR
STARTCHAR uniFB02
ENCODING 64258
SWIDTH 1208 0
DWIDTH 13 0
BBX 13 8 0 0
BITMAP
44676634571000
669A9946791000
66953326791000
66986616791000
66997726791000
66975516791000
66930006799880
6693000679A990
ENDCHAR
STARTCHAR .notdef
ENCODING -1
SWIDTH 108 0
DWIDTH 1 0
BBX 1 1 0 0
BITMAP
00
ENDCHAR
ENDFONT
